:version 1.10
:name ASF
:units
  mass 1
  length 1
  angle deg
:documentation
  ASF file generated by Kaydara
:root
  axis xyz
  order  tx ty tz rx ry rz
  position 0 0 0
  orientation 0 0 0
:bonedata
  begin
    id 1
    name lfemurDummy
    direction 0.61522 -0.761478 0.204097
    length 5.68318
    axis 0 -0 0 xyz
  end
  begin
    id 2
    name lfemur
    direction 0.34202 -0.939693 -5.84747e-008
    length 16.9147
    axis 0 -0 20 xyz
    dof rx ry rz
    limits( -inf , inf )
( -inf , inf )
( -inf , inf )

  end
  begin
    id 3
    name ltibia
    direction 0.34202 -0.939693 1.20839e-009
    length 18.0532
    axis 0 -0 20 xyz
    dof rz ry rx
    limits( -inf , inf )
( -inf , inf )
( -inf , inf )

  end
  begin
    id 4
    name lfoot
    direction 0.0841971 -0.23133 0.969225
    length 5.23822
    axis -90 7.62852e-016 20 xyz
    dof ry rx rz
    limits( -inf , inf )
( -inf , inf )
( -inf , inf )

  end
  begin
    id 5
    name ltoes
    direction 0 0 0
    length 0
    axis 0 0 0 xyz
    dof rz ry rx
    limits( -inf , inf )
( -inf , inf )
( -inf , inf )

  end
  begin
    id 6
    name rfemurDummy
    direction -0.625247 -0.75382 0.202044
    length 5.74091
    axis 0 -0 0 xyz
  end
  begin
    id 7
    name rfemur
    direction -0.34202 -0.939693 -1.47013e-008
    length 16.4922
    axis 0 -0 -20 xyz
    dof rx ry rz
    limits( -inf , inf )
( -inf , inf )
( -inf , inf )

  end
  begin
    id 8
    name rtibia
    direction -0.34202 -0.939693 -7.74345e-010
    length 18.2421
    axis 0 -0 -20 xyz
    dof rz ry rx
    limits( -inf , inf )
( -inf , inf )
( -inf , inf )

  end
  begin
    id 9
    name rfoot
    direction -0.124331 -0.341598 0.931586
    length 5.45787
    axis -90 -7.62852e-016 -20 xyz
    dof ry rx rz
    limits( -inf , inf )
( -inf , inf )
( -inf , inf )

  end
  begin
    id 10
    name rtoes
    direction 0 0 0
    length 0
    axis 0 0 0 xyz
    dof rz ry rx
    limits( -inf , inf )
( -inf , inf )
( -inf , inf )

  end
  begin
    id 11
    name lowerbackDummy
    direction 0 0 0
    length 0
    axis 0 -0 0 xyz
  end
  begin
    id 12
    name lowerback
    direction -0.0218484 0.994884 -0.0986304
    length 4.45607
    axis 0 -0 0 xyz
    dof rx ry rz
    limits( -inf , inf )
( -inf , inf )
( -inf , inf )

  end
  begin
    id 13
    name upperback
    direction -0.00973057 0.999717 -0.0217111
    length 4.47449
    axis 0 -0 0 xyz
    dof rx ry rz
    limits( -inf , inf )
( -inf , inf )
( -inf , inf )

  end
  begin
    id 14
    name thorax
    direction -0.000928171 0.999699 0.0245198
    length 4.50973
    axis 0 -0 0 xyz
    dof rx ry rz
    limits( -inf , inf )
( -inf , inf )
( -inf , inf )

  end
  begin
    id 15
    name rclavicle
    direction -0.9009 0.425937 -0.0834055
    length 7.28587
    axis 0 -0 0 xyz
    dof rx ry rz
    limits( -inf , inf )
( -inf , inf )
( -inf , inf )

  end
  begin
    id 16
    name rhumerus
    direction -1 -2.23604e-007 -1.42637e-007
    length 13.5704
    axis 180 30 90 xyz
    dof rx ry rz
    limits( -inf , inf )
( -inf , inf )
( -inf , inf )

  end
  begin
    id 17
    name rradius
    direction -1 5.68281e-008 -4.4952e-007
    length 8.06782
    axis 180 30 90 xyz
    dof rz ry rx
    limits( -inf , inf )
( -inf , inf )
( -inf , inf )

  end
  begin
    id 18
    name rwrist
    direction -1 1.51393e-007 1.38143e-007
    length 4.03391
    axis -90 -90 0 xyz
    dof rz rx ry
    limits( -inf , inf )
( -inf , inf )
( -inf , inf )

  end
  begin
    id 19
    name rthumb
    direction 0 0 0
    length 0
    axis 0 0 0 xyz
    dof ry rx rz
    limits( -inf , inf )
( -inf , inf )
( -inf , inf )

  end
  begin
    id 20
    name rhand
    direction -1 -3.34077e-007 -5.59631e-007
    length 1.29744
    axis -90 -90 0 xyz
    dof ry rx rz
    limits( -inf , inf )
( -inf , inf )
( -inf , inf )

  end
  begin
    id 21
    name rfingers
    direction 0 0 0
    length 0
    axis 0 0 0 xyz
    dof rz ry rx
    limits( -inf , inf )
( -inf , inf )
( -inf , inf )

  end
  begin
    id 22
    name lclavicle
    direction 0.940017 0.332249 -0.0773232
    length 8.29589
    axis 0 -0 0 xyz
    dof rx ry rz
    limits( -inf , inf )
( -inf , inf )
( -inf , inf )

  end
  begin
    id 23
    name lhumerus
    direction 1 7.41158e-008 -1.44768e-008
    length 12.0042
    axis 180 -30 -90 xyz
    dof rx ry rz
    limits( -inf , inf )
( -inf , inf )
( -inf , inf )

  end
  begin
    id 24
    name lradius
    direction 1 -1.32972e-007 3.10821e-007
    length 8.1902
    axis 180 -30 -90 xyz
    dof rz ry rx
    limits( -inf , inf )
( -inf , inf )
( -inf , inf )

  end
  begin
    id 25
    name lwrist
    direction 1 3.08957e-007 4.01394e-007
    length 4.09509
    axis -90 90 0 xyz
    dof rz rx ry
    limits( -inf , inf )
( -inf , inf )
( -inf , inf )

  end
  begin
    id 26
    name lthumb
    direction 0 0 0
    length 0
    axis 0 0 0 xyz
    dof ry rx rz
    limits( -inf , inf )
( -inf , inf )
( -inf , inf )

  end
  begin
    id 27
    name lhand
    direction 1 -1.64125e-007 -6.99514e-007
    length 1.37229
    axis -90 90 0 xyz
    dof ry rx rz
    limits( -inf , inf )
( -inf , inf )
( -inf , inf )

  end
  begin
    id 28
    name lfingers
    direction 0 0 0
    length 0
    axis 0 0 0 xyz
    dof rz ry rx
    limits( -inf , inf )
( -inf , inf )
( -inf , inf )

  end
  begin
    id 29
    name lowerneck
    direction -0.030798 0.998024 0.0547665
    length 3.93918
    axis 0 -0 0 xyz
    dof rx ry rz
    limits( -inf , inf )
( -inf , inf )
( -inf , inf )

  end
  begin
    id 30
    name upperneck
    direction 0.0531588 0.996611 -0.0627736
    length 3.95491
    axis 0 -0 0 xyz
    dof rx ry rz
    limits( -inf , inf )
( -inf , inf )
( -inf , inf )

  end
  begin
    id 31
    name head
    direction 0 0 0
    length 0
    axis 0 0 0 xyz
    dof rx ry rz
    limits( -inf , inf )
( -inf , inf )
( -inf , inf )

  end
:hierarchy
  begin
    root lfemurDummy rfemurDummy lowerbackDummy
    lfemurDummy lfemur
    lfemur ltibia
    ltibia lfoot
    lfoot ltoes
    rfemurDummy rfemur
    rfemur rtibia
    rtibia rfoot
    rfoot rtoes
    lowerbackDummy lowerback
    lowerback upperback
    upperback thorax
    thorax rclavicle lclavicle lowerneck
    rclavicle rhumerus
    rhumerus rradius
    rradius rwrist
    rwrist rthumb rhand
    rhand rfingers
    lclavicle lhumerus
    lhumerus lradius
    lradius lwrist
    lwrist lthumb lhand
    lhand lfingers
    lowerneck upperneck
    upperneck head
  end

:SAMPLES-PER-SECOND 30
:FULLY-SPECIFIED
:DEGREES
95
root  -1.671762166 39.00911226 8.506444495 3.602005005 7.294998169 -6.175994873
lowerback  14.17099953 7.165699959 -0.2457520068
upperback  4.247270107 9.24423027 -4.185110092
thorax  -2.690109968 4.620940208 -5.71434021
lowerneck  3.35710001 4.192349911 -5.443860054
upperneck  21.99080086 3.723799944 14.1093998
head  5.572450161 2.387820005 5.59691
lclavicle  0 -9.442270133e-015 7.951389973e-016
lhumerus  -13.02130032 -11.50660038 78.52770233
lradius  2.7581848e-031 -2.204826671e-031 141.3619995
lwrist  -7.062250077e-031 1.765562519e-031 13.77680016
lhand  -1.496451383e-031 -27.76390076 20.11240005
lfingers  90 7.125020027 -90
lthumb  89.89689403 5.08795885 91.16245106
rclavicle  0 -9.442270133e-015 7.951389973e-016
rhumerus  3.908829927 0.8586810231 -58.63600159
rradius  -5.528949274e-032 3.487570965e-031 99.00830078
rwrist  1.412450015e-030 -0 -1.455270052
rhand  -7.920061211e-032 -33.2840004 9.303460121
rfingers  -90 -7.125020027 -90
rthumb  -92.93752616 -24.25625642 -97.11982154
rfemur  -4.310410023 8.828160286 16.67609978
rtibia  -0 0 45.51729965
rfoot  -0 -17.24160004 -9.631110191
rtoes  5.373923086 19.29304026 -105.8922705
lfemur  -44.24509811 -7.357439995 -1.849419951
ltibia  -0 0 34.33240128
lfoot  4.478531481e-032 9.745280266 3.238650084
ltoes  -4.250644065 -19.5611806 -102.515957
96
root  -1.57972884 39.32377673 8.36235557 4.222000122 6.199005127 -5.878997803
lowerback  14.13729954 6.908969879 -0.1846300066
upperback  4.27354002 8.910559654 -4.246439934
thorax  -2.655669928 4.455800056 -5.756239891
lowerneck  2.543649912 4.647999763 -5.782680035
upperneck  22.42889977 4.446760178 13.38140011
head  5.793859959 2.685149908 5.470809937
lclavicle  0 -9.442270133e-015 7.951389973e-016
lhumerus  -13.1552 -10.34689999 78.93579865
lradius  2.765059547e-031 -2.19619893e-031 141.5410004
lwrist  -7.062250077e-031 -1.765562519e-031 13.56540012
lhand  -1.496451383e-031 -27.76390076 20.11240005
lfingers  90 7.125020027 -90
lthumb  89.89689403 5.08795885 91.16245106
rclavicle  0 -9.442270133e-015 7.951389973e-016
rhumerus  2.556649923 2.152149916 -60.05619812
rradius  -6.220328993e-032 3.475905509e-031 100.1460037
rwrist  7.062250077e-031 -0 -1.736660004
rhand  -7.920061211e-032 -33.2840004 9.303460121
rfingers  -90 -7.125020027 -90
rthumb  -92.93752616 -24.25625642 -97.11982154
rfemur  -5.226150036 9.253330231 16.00729942
rtibia  -0 0 44.7276001
rfoot  -0 -15.79489994 -10.0965004
rtoes  5.373923086 19.29304026 -105.8922705
lfemur  -43.32289886 -7.921060085 -1.188140035
ltibia  -0 0 32.07839966
lfoot  4.494873565e-032 10.89150047 4.681399822
ltoes  -4.250644065 -19.5611806 -102.515957
97
root  -1.479206686 39.6140001 8.224421974 4.82800293 5.003997803 -5.70199585
lowerback  14.08250046 6.825099945 0.1503989995
upperback  4.214389801 8.838290215 -4.420929909
thorax  -2.615689993 4.423210144 -6.107269764
lowerneck  2.030519962 4.894529819 -5.528180122
upperneck  22.68499947 4.908989906 12.4907999
head  5.963659763 2.877399921 5.172870159
lclavicle  0 -9.442270133e-015 7.951389973e-016
lhumerus  -13.10540009 -9.668640137 79.13960266
lradius  2.78047663e-031 -2.176647363e-031 141.9450073
lwrist  -1.412450015e-030 -1.765562519e-031 13.9083004
lhand  -1.496451383e-031 -27.76390076 20.11240005
lfingers  90 7.125020027 -90
lthumb  89.89689403 5.08795885 91.16245106
rclavicle  0 -9.442270133e-015 7.951389973e-016
rhumerus  0.6792669892 2.896159887 -61.61159897
rradius  -6.744964385e-032 3.466107124e-031 101.012001
rwrist  3.531125038e-031 -3.531125038e-031 -1.803539991
rhand  -7.920061211e-032 -33.2840004 9.303460121
rfingers  -90 -7.125020027 -90
rthumb  -92.93752616 -24.25625642 -97.11982154
rfemur  -6.216650009 9.639089584 15.41310024
rtibia  -0 0 44.03250122
rfoot  -0 -14.37020016 -10.6189003
rtoes  5.373923086 19.29304026 -105.8922705
lfemur  -42.50859833 -8.733440399 -0.1892549992
ltibia  -0 0 30.23089981
lfoot  4.504213784e-032 11.49260044 5.853040218
ltoes  -4.250644065 -19.5611806 -102.515957
98
root  -1.369704412 39.88022091 8.086422297 5.509002686 3.725006104 -5.386001587
lowerback  14.28919983 6.809939861 0.7475489974
upperback  3.887979984 8.867870331 -4.922739983
thorax  -2.892230034 4.433380127 -7.024759769
lowerneck  1.838089943 5.033780098 -4.963809967
upperneck  22.86680031 5.177010059 11.82040024
head  6.078509808 3.006979942 4.879439831
lclavicle  0 -9.442270133e-015 7.951389973e-016
lhumerus  -13.14220047 -9.415379524 78.83399963
lradius  2.803941673e-031 -2.14633528e-031 142.5670013
lwrist  -7.062250077e-031 -1.765562519e-031 14.81470013
lhand  -1.496451383e-031 -27.76390076 20.11240005
lfingers  90 7.125020027 -90
lthumb  89.89689403 5.08795885 91.16245106
rclavicle  0 -9.442270133e-015 7.951389973e-016
rhumerus  -1.655300021 3.186320066 -63.38359833
rradius  -7.126872263e-032 3.458456441e-031 101.6439972
rwrist  7.062250077e-031 -3.531125038e-031 -1.765300035
rhand  -7.920061211e-032 -33.2840004 9.303460121
rfingers  -90 -7.125020027 -90
rthumb  -92.93752616 -24.25625642 -97.11982154
rfemur  -7.413370132 9.892709732 14.58030033
rtibia  -0 0 43.50360107
rfoot  -0 -13.02670002 -11.125
rtoes  5.373923086 19.29304026 -105.8922705
lfemur  -41.9272995 -9.482290268 0.6211299896
ltibia  -0 0 29.02400017
lfoot  4.505793742e-032 11.5909996 5.867899895
ltoes  -4.250644065 -19.5611806 -102.515957
99
root  -1.251304431 40.1095563 7.942733614 6.134994507 2.408996582 -5.108001709
lowerback  14.5909996 6.643730164 1.193279982
upperback  3.701430082 8.684690475 -5.25977993
thorax  -3.150549889 4.333920002 -7.663630009
lowerneck  1.011059999 5.319839954 -4.927529812
upperneck  23.1826992 5.665160179 11.21780014
head  6.307670116 3.215719938 4.732930183
lclavicle  0 -9.442270133e-015 7.951389973e-016
lhumerus  -13.01299953 -8.62209034 78.43389893
lradius  2.824711345e-031 -2.11892658e-031 143.125
lwrist  -7.062250077e-031 -0 15.47179985
lhand  -1.496451383e-031 -27.76390076 20.11240005
lfingers  90 7.125020027 -90
lthumb  89.89689403 5.08795885 91.16245106
rclavicle  0 -9.442270133e-015 7.951389973e-016
rhumerus  -3.300410032 3.741339922 -64.86589813
rradius  -7.339814266e-032 3.453999899e-031 101.9970016
rwrist  1.059337512e-030 -0 -1.837900043
rhand  -7.920061211e-032 -33.2840004 9.303460121
rfingers  -90 -7.125020027 -90
rthumb  -92.93752616 -24.25625642 -97.11982154
rfemur  -8.701629639 10.0539999 13.76469994
rtibia  -0 0 43.18899918
rfoot  -0 -11.82320023 -11.8501997
rtoes  5.373923086 19.29304026 -105.8922705
lfemur  -41.53699875 -9.892809868 1.205729961
ltibia  -0 0 28.63069916
lfoot  4.502075841e-032 11.3579998 4.375040054
ltoes  -4.250644065 -19.5611806 -102.515957
100
root  -1.133537762 40.28599957 7.781667034 6.764007568 1.070999146 -4.902999878
lowerback  14.62069988 6.43005991 1.04922998
upperback  3.742650032 8.381170273 -5.11315012
thorax  -3.20855999 4.177149773 -7.385300159
lowerneck  -0.1385989934 5.715809822 -5.336369991
upperneck  23.44020081 6.418729782 10.2354002
head  6.55753994 3.483340025 4.560279846
lclavicle  0 -9.442270133e-015 7.951389973e-016
lhumerus  -12.87069988 -7.26556015 78.50990295
lradius  2.848531174e-031 -2.086795195e-031 143.7740021
lwrist  -7.062250077e-031 -0 15.63659954
lhand  -1.496451383e-031 -27.76390076 20.11240005
lfingers  90 7.125020027 -90
lthumb  89.89689403 5.08795885 91.16245106
rclavicle  0 -9.442270133e-015 7.951389973e-016
rhumerus  -4.180439949 4.698329926 -65.65049744
rradius  -7.397074373e-032 3.452778149e-031 102.0920029
rwrist  7.062250077e-031 -0 -2.010139942
rhand  -7.920061211e-032 -33.2840004 9.303460121
rfingers  -90 -7.125020027 -90
rthumb  -92.93752616 -24.25625642 -97.11982154
rfemur  -10.1395998 10.17920017 13.03989983
rtibia  -0 0 43.12630081
rfoot  -0 -11.01690006 -13.04349995
rtoes  5.373923086 19.29304026 -105.8922705
lfemur  -41.40950012 -9.738280296 1.463989973
ltibia  -0 0 29.12579918
lfoot  6.750291024e-032 11.23810005 1.62646997
ltoes  -4.250644065 -19.5611806 -102.515957
101
root  -1.024911066 40.42111194 7.614244626 7.352005005 -0.2920074463 -4.638000488
lowerback  14.49040031 6.236279964 0.404475987
upperback  3.903899908 8.046629906 -4.711969852
thorax  -3.163300037 4.00661993 -6.52327013
lowerneck  -1.463279963 6.140339851 -5.851349831
upperneck  23.70540047 7.29557991 9.040010452
head  6.845009804 3.77493 4.356389999
lclavicle  0 -9.442270133e-015 7.951389973e-016
lhumerus  -12.66300011 -5.750559807 78.7276001
lradius  2.876710477e-031 -2.047774614e-031 144.5549927
lwrist  -7.062250077e-031 -0 15.58510017
lhand  -1.496451383e-031 -27.76390076 20.11240005
lfingers  90 7.125020027 -90
lthumb  89.89689403 5.08795885 91.16245106
rclavicle  0 -9.442270133e-015 7.951389973e-016
rhumerus  -4.649610043 5.817039967 -65.98139954
rradius  -7.357295185e-032 3.453627964e-031 102.026001
rwrist  7.062250077e-031 -0 -2.358580112
rhand  -7.920061211e-032 -33.2840004 9.303460121
rfingers  -90 -7.125020027 -90
rthumb  -92.93752616 -24.25625642 -97.11982154
rfemur  -11.64500046 10.31849957 12.31709957
rtibia  -0 0 43.3268013
rfoot  -0 -10.75020027 -14.96630001
rtoes  5.373923086 19.29304026 -105.8922705
lfemur  -41.42950058 -9.129599571 1.270439982
ltibia  -0 0 30.46809959
lfoot  5.631007732e-032 11.52960014 -1.524909973
ltoes  -4.250644065 -19.5611806 -102.515957
102
root  -0.9034333267 40.54511063 7.468911419 7.776992798 -1.79800415 -4.302993774
lowerback  14.42469978 6.084370136 -0.05098259822
upperback  4.088610172 7.789199829 -4.505259991
thorax  -3.053299904 3.87845993 -5.991970062
lowerneck  -2.800110102 6.513030052 -6.15075016
upperneck  23.92770004 8.096170425 7.966380119
head  7.138750076 4.046120167 4.161389828
lclavicle  0 -9.442270133e-015 7.951389973e-016
lhumerus  -12.07479954 -4.393360138 78.4260025
lradius  2.897433607e-031 -2.018346484e-031 145.1390076
lwrist  -1.412450015e-030 1.765562519e-031 15.71549988
lhand  -1.496451383e-031 -27.76390076 20.11240005
lfingers  90 7.125020027 -90
lthumb  89.89689403 5.08795885 91.16245106
rclavicle  0 -9.442270133e-015 7.951389973e-016
rhumerus  -5.131509781 6.623380184 -66.354599
rradius  -7.252979782e-032 3.455833746e-031 101.8529968
rwrist  7.062250077e-031 -0 -2.722739935
rhand  -7.920061211e-032 -33.2840004 9.303460121
rfingers  -90 -7.125020027 -90
rthumb  -92.93752616 -24.25625642 -97.11982154
rfemur  -12.98449993 10.41839981 11.54209995
rtibia  -0 0 43.73630142
rfoot  -0 -11.19229984 -16.95730019
rtoes  5.373923086 19.29304026 -105.8922705
lfemur  -41.39730072 -8.413450241 0.7928770185
ltibia  -0 0 32.56850052
lfoot  4.507425567e-032 11.69169998 -4.085639954
ltoes  -4.250644065 -19.5611806 -102.515957
103
root  -0.7790422346 40.64599886 7.329111024 8.110992432 -3.309997559 -3.832992554
lowerback  14.50339985 5.97533989 -0.1650480032
upperback  4.102109909 7.613900185 -4.706639767
thorax  -3.084259987 3.790610075 -6.124810219
lowerneck  -3.592890024 6.808690071 -5.762740135
upperneck  23.89179993 8.682009697 7.030600071
head  7.299119949 4.275440216 3.860059977
lclavicle  0 -9.442270133e-015 7.951389973e-016
lhumerus  -11.4914999 -3.535209894 77.50650024
lradius  2.912952077e-031 -1.995884324e-031 145.5820007
lwrist  -7.062250077e-031 -1.765562519e-031 16.10379982
lhand  -1.496451383e-031 -27.76390076 20.11240005
lfingers  90 7.125020027 -90
lthumb  89.89689403 5.08795885 91.16245106
rclavicle  0 -9.442270133e-015 7.951389973e-016
rhumerus  -6.137450218 6.890659809 -67.08820343
rradius  -7.15584576e-032 3.457858116e-031 101.6920013
rwrist  3.531125038e-031 -3.531125038e-031 -2.968430042
rhand  -7.920061211e-032 -33.2840004 9.303460121
rfingers  -90 -7.125020027 -90
rthumb  -92.93752616 -24.25625642 -97.11982154
rfemur  -14.24870014 10.25259972 10.61919975
rtibia  -0 0 44.31570053
rfoot  -0 -12.62170029 -18.29949951
rtoes  5.373923086 19.29304026 -105.8922705
lfemur  -41.40650177 -7.475470066 -0.0499044992
ltibia  -0 0 35.27050018
lfoot  4.500727043e-032 11.27219963 -6.096189976
ltoes  -4.250644065 -19.5611806 -102.515957
